<svg width="169" height="169" viewBox="0 0 169 169" fill="none" xmlns="http://www.w3.org/2000/svg">
<g clip-path="url(#clip0_241_2)">
<path d="M167.369 161.777C161.909 158.895 156.235 156.346 151.178 152.911C150.144 152.256 149.19 151.459 147.941 152.267C148.08 152.615 148.108 153.088 148.382 153.248C152.788 155.801 157.215 158.328 161.663 160.83C163.281 162.128 166.951 162.386 166.987 164.659C165.723 166.81 160.045 166.859 157.599 166.556C154.251 166.49 146.223 160.987 144.549 162.821C137.718 156.99 128.836 153.771 121.404 148.619L121.631 148.271C125.555 150.234 129.714 151.337 134.255 150.78C136.955 150.683 136.307 148.455 133.937 148.984C122.804 151.007 118.744 140.369 117.146 144.96C115.229 144.264 114.442 145.883 116.33 146.638C119.953 149.635 123.647 152.531 128.016 154.7C130.311 156.138 147.5 163.918 142.836 166.361C137.77 168.171 131.651 167.298 126.601 165.832C123.13 163.865 119.118 163.026 115.356 161.672C109.957 159.845 104.696 157.669 99.5351 155.434C98.5172 155.34 98.0242 156.103 98.6524 156.827C100.569 157.923 102.716 158.599 104.676 159.897C86.7437 159.601 69.3837 154.676 52.4055 150.032C50.9621 149.667 50.3577 151.466 51.98 151.665C58.6878 153.422 65.1849 155.803 72.1074 156.917C76.1552 157.895 78.4057 161.693 80.195 164.736C74.5051 166.862 60.6004 157.711 56.0516 154.401C55.5864 154.053 55.1371 153.704 54.5685 154.174C53.6023 155.069 55.1371 156.016 55.8449 156.58C61.4513 160.172 67.0139 163.841 73.682 165.874C84.1871 169.205 83.5071 164.025 77.7894 158.275C88.7835 160.659 99.547 161.47 110.74 162.313C119.579 163.743 127.042 169.501 136.299 168.965C140.303 169.076 146.239 168.801 145.798 164.043C151.011 165.957 155.79 169.028 161.663 168.255C163.289 168.143 164.884 167.646 166.49 167.301C169.436 166.654 169.866 163.04 167.369 161.777ZM117.197 144.964C117.249 144.964 117.229 144.964 117.197 144.964Z" fill="#111111" stroke="black"/>
<path d="M108.231 117.969C107.189 118.728 108 119.629 108.012 120.454C108.12 122.748 108.108 132.895 111.333 132.986C112.462 133.156 115.122 134.977 114.836 132.683C113.162 127.754 111.344 123.222 110.362 118.063C110.684 117.259 113.241 116.155 112.402 115.059C111.643 114.147 110.692 115.087 109.909 115.529C109.133 114.849 108.561 114.012 108.244 113.092C107.927 112.172 107.875 111.197 108.092 110.255C111.456 110.989 114.603 112.343 117.321 114.227C117.718 114.606 118.267 114.794 118.621 114.37C120.056 112.166 115.798 111.529 114.323 110.541L114.466 110.193C123.861 112.473 121.651 109.256 130.211 109.054C130.772 109.284 131.802 108.929 131.933 108.567C131.91 108.37 131.838 108.18 131.723 108.01C131.608 107.84 131.451 107.694 131.265 107.582C129.73 107.157 128.275 107.516 126.597 107.617V105.051C130.072 105.163 133.027 106.388 135.742 108.121C136.379 108.545 137.162 108.762 137.961 108.738C143.703 109.312 152.748 110.356 153.866 116.424C152.784 117.036 151.627 118.794 150.287 117.649C149.668 117.187 149.228 116.57 149.025 115.881C148.823 115.191 148.87 114.464 149.158 113.799C149.377 113.263 149.381 112.789 148.796 112.473C148.212 112.156 147.667 112.372 147.42 112.918C146.351 115.498 143.73 112.622 142.617 114.262C142.037 115.498 145.337 115.745 146.418 115.922C147.07 118.067 144.955 120.503 142.283 120.702C141.353 120.914 139.229 120.141 139.102 121.37C139.152 121.571 139.257 121.758 139.408 121.915C139.559 122.072 139.752 122.194 139.969 122.272C143.496 123.159 146.331 121.227 148.287 118.808C150.558 119.911 152.108 119.943 154.335 118.623C157.468 129.414 148.669 134.319 145.567 143.745H141.989C141.301 143.418 139.814 141.511 138.84 142.611C137.667 144.208 141.722 144.452 140.287 146.534C139.917 147.16 138.895 147.954 139.889 148.546C141.695 149.165 141.937 146.722 142.852 145.681C149.587 144.17 146.876 154.78 141.098 151.104C140.498 150.223 138.848 150.206 139.082 151.428C143.54 157.279 152.446 149.966 147.365 144.974C148.605 139.457 152.82 135.165 155.436 130.138C157.89 125.38 156.629 119.769 155.472 114.822C153.79 110.168 147.5 108.285 142.49 107.582C139.897 107.109 137.114 106.945 134.868 105.587C132.339 104.045 129.301 103.704 126.446 103.004C123.663 102.698 124.689 106.444 124.478 108C119.309 110.534 113.392 107.585 107.865 108.522C104.49 109.072 106.064 114.276 107.718 115.832C108.442 116.559 107.869 117.308 108.231 117.969ZM112.243 131.51C111.003 130.601 110.971 129.383 110.963 128.154C111.387 129.275 111.814 130.394 112.243 131.51Z" fill="#111111" stroke="black"/>
<path d="M48.8786 149.58C49.0138 136.042 55.6381 120.176 42.5167 109.625C40.3179 109.058 41.2245 111.153 42.2742 111.853C52.7593 121.6 47.6818 135.301 46.9541 147.171C46.6321 150.505 47.0774 153.718 49.0178 156.722C50.9934 159.877 52.7798 163.12 54.3697 166.438C46.3975 168.676 38.7791 161.564 33.0494 157.572C29.9758 155.483 28.7313 152.493 27.3714 149.444C20.9579 142.614 13.1725 136.561 8.79872 128.485C4.54023 119.783 -0.815683 109.197 3.65752 99.8821C6.48458 95.3847 8.3335 90.212 12.5125 86.5083C13.1487 85.9235 13.3077 85.4188 12.8584 84.9523C11.1248 83.5599 8.96572 87.7823 7.97565 88.7361C3.29171 96.0983 -1.90516 103.704 0.695264 112.445C2.88614 121.896 6.80665 131.002 13.9002 138.479C17.8167 142.879 22.8625 146.711 26.1667 151.435C27.0389 154.085 28.7512 156.463 31.1051 158.296C36.8666 162.292 42.3259 167.346 49.8607 168.519C58.9383 169.397 56.4413 165.811 53.5307 160.757C51.6977 157.144 48.7116 153.691 48.8786 149.58Z" fill="#111111" stroke="black"/>
<path d="M47.9362 1.79601C54.3737 1.29127 59.0695 3.53648 61.3479 9.02941C62.5407 11.5566 61.8091 14.2508 59.4075 16.2872C56.1033 19.0719 52.7196 21.7975 49.3716 24.5475C39.129 33.2498 27.1369 42.6658 24.6796 55.5487C23.6855 58.1003 21.932 71.9997 25.6021 72.299C26.1468 72.0658 26.2979 71.2548 26.0474 70.7257C24.9659 67.1995 25.2084 63.6593 25.7412 60.0914C27.0215 48.7122 33.5146 41.1168 42.2105 33.0758C47.7653 27.9797 53.9761 23.4962 59.6501 18.5393C61.2405 17.147 62.7833 15.7546 63.3161 13.7426C65.5825 6.36649 56.9542 -1.10362 48.6042 0.135597C47.4671 0.00680182 46.4293 1.50361 47.9362 1.79601Z" fill="#111111" stroke="black"/>
<path d="M15.3951 80.3713C16.8544 79.891 15.5343 78.147 15.3474 77.2385C11.3712 68.383 12.6277 58.6816 13.5263 49.4466C14.6198 40.2987 15.9558 30.7992 21.5224 22.8209C24.9857 17.69 28.0433 12.2458 33.1766 8.20093C34.6796 7.44209 34.5086 5.35352 32.4808 6.35603C26.0553 11.7654 21.9876 18.6055 17.7689 25.3829C12.8742 34.0261 12.2698 43.9502 11.1843 53.3975C10.0472 62.1764 10.3653 71.1503 14.079 79.4454C14.2778 79.9954 14.584 80.5802 15.3951 80.3713Z" fill="#111111" stroke="black"/>
<path d="M31.2602 73.1379C29.6698 73.406 30.0077 75.324 31.6578 74.7914C52.7753 68.1254 72.4176 83.633 85.1891 96.8188C86.2508 97.6577 92.9705 105.117 92.4894 100.996C78.4654 87.462 62.9822 71.5193 40.306 71.3696C37.0297 71.018 34.2781 72.3025 31.2602 73.1379Z" fill="#111111" stroke="black"/>
<path d="M118.426 141.257C119.086 141.772 120.311 142.301 120.859 141.368C121.48 140.066 115.762 137.755 114.625 136.697C112.052 134.848 111.225 137.316 112.239 139.133C113.297 140.355 114.434 143.7 116.402 143.568C117.992 142.628 114.835 140.435 114.414 139.304L114.68 139.109L118.426 141.257Z" fill="#111111" stroke="black"/>
<path d="M123.452 142.04C121.841 144.393 131.714 146.986 133.79 146.534L133.818 146.687C134.943 146.273 138.681 146.722 138.124 145.089C137.909 144.758 137.142 144.393 136.768 144.494C132.315 145.636 128.533 144.299 124.955 142.162C124.438 141.855 123.981 141.58 123.452 142.04Z" fill="#111111" stroke="black"/>
<path d="M17.3833 80.8726C17.6577 81.5166 18.4171 81.896 18.9976 81.4122C19.5742 78.5543 30.8069 75.6269 26.6995 74.3876C23.2044 75.7243 18.7392 77.4926 17.3833 80.8726Z" fill="#111111" stroke="black"/>
<path d="M103.782 109.42C107.189 108.121 98.1951 105.11 97.1056 104.129C95.9128 103.363 95.0142 104.574 95.9128 105.389C98.553 106.746 100.883 108.501 103.782 109.42Z" fill="#111111" stroke="black"/>
<path d="M125.372 119.786C127.508 119.187 127.384 115.4 130.816 116.692C132.577 117.645 133.293 115.278 131.42 114.979C128.522 114.119 124.712 116.263 124.661 119.097C124.788 119.226 125.046 119.755 125.372 119.786Z" fill="#111111" stroke="black"/>
<path d="M37.1368 5.56237C39.1488 4.80353 40.9977 3.26147 43.288 3.33805C43.9957 3.39026 44.3973 3.21622 44.5047 2.61401C44.7035 1.35043 43.1687 0.995375 42.119 1.49315C39.9917 2.53743 37.0891 3.05609 35.5623 4.74783C35.6299 5.70857 36.2979 5.94528 37.1368 5.56237Z" fill="#111111" stroke="black"/>
</g>
<defs>
<clipPath id="clip0_241_2">
<rect width="169" height="169" fill="white"/>
</clipPath>
</defs>
</svg>
