<svg width="383" height="378" viewBox="0 0 383 378" fill="none" xmlns="http://www.w3.org/2000/svg">
<g clip-path="url(#clip0_138_57)">
<path d="M379.657 149.953C376.963 135.973 372.7 122.341 366.949 109.316C349.666 70.9412 319.834 39.5832 282.354 20.3953C244.874 1.20735 201.977 -4.66886 160.713 3.73233C153.713 5.13492 146.802 6.95228 140.017 9.17479C130.195 11.6206 120.598 14.8979 111.333 18.9712C87.6924 29.4589 66.4813 44.7245 49.0351 63.8066C31.589 82.8887 18.2858 105.374 9.96337 129.846C1.64091 154.318 -1.52053 180.248 0.67813 206.001C2.87679 231.754 10.3879 256.773 22.7385 279.483C27.1457 287.565 32.1204 295.325 37.6253 302.704C43.2107 309.993 49.2757 316.902 55.7798 323.386C81.5919 349.052 114.317 366.662 149.968 374.071C185.619 381.479 222.657 378.366 256.569 365.111L268.551 360.032L279.444 354.589C286.769 350.477 293.805 345.871 300.503 340.802L310.307 333.182L314.664 329.191L318.658 325.926L325.92 319.395L328.461 317.218L330.64 314.678L337.175 307.421C345.354 298.162 352.534 288.068 358.598 277.306C368.127 260.701 374.988 242.703 378.931 223.97C384.1 199.592 384.347 174.428 379.657 149.953ZM316.116 321.572L311.759 325.563L307.402 329.554L297.962 337.173C291.368 341.992 284.453 346.356 277.265 350.235L266.373 355.678L254.754 360.395L236.962 366.2H235.147C210.851 371.265 185.784 371.388 161.439 366.563C147.555 363.74 134.035 359.358 121.136 353.501C107.529 347.341 94.7258 339.543 83.0116 330.28C70.6049 320.346 59.5033 308.887 49.9704 296.174C45.0308 289.59 40.5424 282.681 36.536 275.492C34.3574 271.864 32.542 268.236 30.7265 264.244C28.9111 260.253 27.0956 256.625 26.0063 252.634C14.2148 221.932 10.8919 188.63 16.3849 156.206C21.8779 123.783 35.9851 93.4284 57.2322 68.3161L60.1369 65.4135L61.9524 63.2365L64.1309 61.0595L68.488 57.0684L77.2022 49.4489C97.853 32.7267 121.895 20.6909 147.663 14.1752C173.431 7.65961 200.308 6.82001 226.433 11.7146C245.126 15.0859 263.15 21.4573 279.807 30.5818C290.582 36.4915 300.686 43.5472 309.944 51.6259L317.205 58.1569L319.747 60.3339L321.926 62.8737L328.461 70.1303C349.146 93.7827 363.289 122.424 369.49 153.218C374.28 177.427 374.157 202.35 369.127 226.51C366.282 240.262 361.897 253.65 356.056 266.421C349.675 280.062 341.625 292.858 332.092 304.519L324.467 313.227L316.116 321.572ZM153.088 368.74C135.71 365.149 118.952 359.037 103.345 350.598C95.5052 346.301 87.9822 341.451 80.8331 336.085C73.7992 330.726 67.1279 324.908 60.8631 318.669C36.2572 293.789 19.3907 262.319 12.3027 228.063C5.21478 193.808 8.20889 158.234 20.9231 125.643C22.3754 121.652 24.1909 118.024 25.6433 114.396L27.8218 109.679C22.1886 122.465 18.0464 135.857 15.4767 149.59C8.51279 184.188 11.535 220.05 24.1909 252.997C25.6433 256.988 27.4587 260.979 29.2742 264.607C31.0896 268.236 32.9051 272.227 35.0836 275.855C39.0788 283.166 43.5673 290.197 48.518 296.899C58.1241 309.776 69.3515 321.361 81.9224 331.368C93.8521 340.797 106.901 348.718 120.773 354.952C153.41 369.633 189.606 374.548 224.98 369.102C201.229 373.742 176.791 373.619 153.088 368.74ZM377.842 223.97C374.025 242.685 367.285 260.684 357.872 277.306C351.925 288.053 344.866 298.146 336.812 307.421L330.277 314.678L328.098 317.218L325.556 319.395L318.658 325.563H319.384L327.735 316.855L335.36 307.784C344.809 295.741 352.736 282.58 358.961 268.598C374.85 232.564 378.917 192.43 370.58 153.944C368.419 143.784 365.382 133.829 361.502 124.192C358.33 116.067 354.568 108.185 350.247 100.608C344.179 89.8492 336.999 79.7557 328.824 70.4931L322.289 63.2365L320.11 60.6967L317.568 58.5197L310.307 51.9888C301.201 43.3595 291.223 35.699 280.533 29.1305C272.962 24.6871 265.074 20.8064 256.932 17.5199C247.299 13.5231 237.337 10.3668 227.159 8.0863C212.024 4.75657 196.537 3.29433 181.046 3.73233C209.047 1.27645 237.238 5.24775 263.468 15.3429L275.087 20.0597L286.343 25.865C293.537 29.8667 300.452 34.3519 307.039 39.2897L316.479 46.9091L320.836 50.9003L325.193 54.8914L333.544 63.2365L341.169 71.9444C350.569 83.6287 358.496 96.4238 364.77 110.042C370.611 122.813 374.996 136.201 377.842 149.953C382.771 174.257 382.771 199.303 377.842 223.607V223.97Z" fill="#111111"/>
<path d="M93.5971 241.079C93.209 241.079 92.8597 241.041 92.4715 240.963C92.2774 240.924 92.0446 240.847 91.8505 240.769C91.54 240.614 91.3071 240.343 91.1907 239.993C91.113 239.683 91.0742 239.334 91.0354 238.985V237.938V227.466V216.955C91.0354 216.605 91.0354 216.295 91.0742 215.946C91.0742 215.636 91.113 215.326 91.1907 215.015C91.3071 214.589 91.6176 214.317 92.0057 214.123C92.2386 214.046 92.4715 213.968 92.7044 213.968C93.0925 213.929 93.4807 213.929 93.83 213.929H99.6521H106.483C106.871 213.929 107.26 213.929 107.609 213.968C107.919 213.968 108.191 214.007 108.463 214.084C109.006 214.24 109.356 214.627 109.472 215.209C109.511 215.326 109.55 215.481 109.55 215.636V218.196C109.55 218.428 109.511 218.661 109.433 218.933C109.317 219.321 109.045 219.631 108.618 219.747C108.385 219.825 108.152 219.902 107.881 219.902C107.531 219.941 107.143 219.941 106.755 219.941H101.593C101.243 219.941 100.933 219.941 100.584 219.98C100.312 219.98 100.079 220.019 99.8461 220.096C99.2639 220.29 98.9146 220.678 98.7594 221.26C98.7205 221.415 98.7205 221.531 98.6817 221.648C98.6429 222.307 98.6429 222.966 98.6817 223.626C98.7205 223.781 98.7205 223.936 98.7982 224.091C98.9534 224.634 99.3027 224.983 99.885 225.138C100.118 225.177 100.351 225.216 100.622 225.216H102.485C103.068 225.216 103.611 225.255 104.154 225.332C105.047 225.449 105.591 225.953 105.629 226.884V229.676C105.629 229.832 105.591 229.948 105.552 230.064C105.397 230.646 105.047 231.073 104.426 231.189C103.922 231.267 103.378 231.305 102.835 231.305C102.175 231.305 101.515 231.305 100.855 231.344C100.545 231.344 100.234 231.344 99.9238 231.422C99.3804 231.499 98.9922 231.848 98.837 232.43C98.7594 232.663 98.7205 232.896 98.6817 233.167C98.6429 233.477 98.6817 233.826 98.6817 234.176C98.6429 235.533 98.6817 236.852 98.6429 238.209C98.6429 238.597 98.6429 238.946 98.6041 239.334C98.5653 239.567 98.5265 239.838 98.4488 240.071C98.3324 240.42 98.0607 240.692 97.6726 240.847C97.5173 240.924 97.3232 240.963 97.1292 240.963C96.8187 241.041 96.4693 241.079 96.12 241.079H93.5971ZM116.176 241.079C115.594 241.079 115.05 241.079 114.507 240.924C114.197 240.847 113.964 240.73 113.77 240.536C113.576 240.304 113.42 240.071 113.381 239.799C113.343 239.567 113.304 239.373 113.304 239.14V238.015V227.504V216.838C113.304 216.45 113.304 216.024 113.343 215.636C113.343 215.364 113.381 215.132 113.459 214.899C113.614 214.511 113.847 214.24 114.235 214.123C114.546 214.007 114.856 213.968 115.167 213.968C115.516 213.929 115.866 213.929 116.176 213.929H129.334C129.644 213.929 129.994 213.929 130.343 213.968C130.615 213.968 130.848 214.007 131.081 214.084C131.624 214.201 131.935 214.589 132.051 215.093C132.09 215.287 132.129 215.481 132.129 215.675V218.196C132.129 218.351 132.09 218.506 132.09 218.661C131.973 219.321 131.508 219.786 130.848 219.864C130.615 219.902 130.382 219.941 130.188 219.941H129.062H123.9C123.551 219.941 123.201 219.941 122.852 219.98C122.542 219.98 122.231 220.019 121.959 220.135C121.494 220.29 121.222 220.6 121.028 221.027C121.028 221.105 120.989 221.182 120.95 221.299C120.834 221.958 120.834 222.656 120.911 223.354L121.028 223.703C121.222 224.285 121.61 224.634 122.231 224.751C122.542 224.828 122.852 224.828 123.163 224.828H125.414C125.88 224.828 126.345 224.867 126.811 224.944C126.966 224.983 127.122 224.983 127.277 225.061C127.665 225.177 127.975 225.449 128.092 225.875C128.208 226.186 128.286 226.535 128.286 226.884V228.939C128.286 229.25 128.208 229.56 128.131 229.87C127.975 230.336 127.665 230.607 127.199 230.724C127.083 230.801 126.928 230.801 126.772 230.84C126.151 230.879 125.53 230.956 124.87 230.956C124.288 230.918 123.706 230.918 123.124 230.956C122.813 230.956 122.542 230.956 122.27 230.995C121.649 231.073 121.261 231.461 121.028 232.042C120.795 232.624 120.795 233.245 121.028 233.865C121.261 234.486 121.649 234.874 122.347 234.912C123.24 234.99 124.133 235.029 125.026 235.068H129.528C129.955 235.068 130.343 235.068 130.77 235.106C131.003 235.145 131.236 235.184 131.469 235.339C131.818 235.611 132.051 235.921 132.09 236.348C132.129 236.503 132.129 236.658 132.129 236.813V239.256C132.129 239.45 132.09 239.683 132.051 239.916C131.935 240.42 131.624 240.73 131.158 240.886C130.809 241.002 130.498 241.041 130.149 241.041C129.877 241.079 129.567 241.079 129.295 241.079H116.176ZM139.337 241.079C138.988 241.079 138.639 241.079 138.289 241.041C137.94 241.041 137.591 241.002 137.28 240.886C136.776 240.73 136.426 240.381 136.31 239.838C136.232 239.606 136.232 239.334 136.193 239.101V238.054V216.877V215.946C136.193 215.791 136.193 215.636 136.232 215.481C136.31 214.627 136.814 214.123 137.668 214.007C137.901 213.968 138.134 213.929 138.406 213.929H141.588C141.938 213.929 142.287 213.968 142.598 214.046C143.18 214.201 143.529 214.55 143.646 215.132C143.684 215.364 143.723 215.558 143.723 215.791V216.916V224.13V231.344C143.723 232.004 143.762 232.663 143.84 233.322C143.878 233.516 143.878 233.671 143.956 233.865C144.111 234.369 144.461 234.719 144.965 234.874C145.159 234.912 145.392 234.951 145.625 234.951C146.634 235.029 147.682 235.068 148.691 235.068H151.991C152.34 235.068 152.689 235.068 153.039 235.145C153.621 235.223 154.048 235.572 154.203 236.192C154.242 236.348 154.281 236.541 154.319 236.735C154.358 237.589 154.358 238.403 154.319 239.256C154.319 239.489 154.242 239.683 154.203 239.916C154.048 240.42 153.737 240.769 153.194 240.886C152.844 240.963 152.495 241.041 152.185 241.041C151.874 241.079 151.525 241.079 151.214 241.079H139.337ZM165.607 241.075C165.2 241.072 164.796 241.02 164.402 240.912C163.911 240.777 163.588 240.45 163.437 239.974C163.363 239.74 163.333 239.485 163.32 239.238C163.297 238.833 163.3 238.426 163.3 238.02C163.299 233.145 163.3 228.271 163.299 223.395C163.299 222.927 163.299 222.458 163.28 221.989C163.269 221.741 163.243 221.488 163.179 221.249C163.022 220.664 162.652 220.269 162.058 220.097C161.694 219.992 161.322 219.956 160.945 219.953C160.351 219.948 159.757 219.949 159.163 219.946C158.819 219.943 158.475 219.943 158.131 219.928C157.914 219.917 157.692 219.9 157.481 219.85C156.881 219.705 156.48 219.34 156.369 218.719C156.159 217.539 156.158 216.355 156.363 215.174C156.465 214.592 156.821 214.223 157.382 214.07C157.65 213.996 157.935 213.965 158.214 213.948C158.588 213.925 158.964 213.93 159.339 213.93C161.935 213.929 164.53 213.93 167.125 213.93C169.721 213.93 172.316 213.929 174.912 213.93C175.287 213.93 175.664 213.925 176.037 213.953C176.315 213.974 176.599 214.018 176.864 214.101C177.309 214.24 177.606 214.553 177.752 214.997C177.861 215.326 177.909 215.668 177.912 216.013C177.919 216.668 177.926 217.325 177.907 217.981C177.9 218.259 177.855 218.543 177.778 218.81C177.617 219.364 177.239 219.724 176.674 219.845C176.37 219.91 176.054 219.929 175.743 219.936C175.086 219.951 174.43 219.943 173.773 219.947C173.492 219.948 173.209 219.943 172.929 219.964C172.681 219.983 172.429 220.011 172.19 220.076C171.529 220.258 171.104 220.687 170.983 221.368C170.912 221.766 170.882 222.173 170.857 222.578C170.836 222.921 170.848 223.265 170.848 223.609C170.848 228.39 170.848 233.171 170.847 237.952C170.847 238.389 170.846 238.827 170.828 239.264C170.818 239.481 170.794 239.703 170.732 239.91C170.579 240.423 170.246 240.776 169.722 240.927C169.389 241.022 169.048 241.072 168.703 241.074C167.671 241.079 166.639 241.082 165.607 241.075ZM215.161 241.077C214.379 241.077 213.598 241.077 212.816 241.076C212.409 241.076 212.006 241.039 211.604 240.967C210.896 240.839 210.413 240.44 210.155 239.776C210.019 239.428 209.91 239.069 209.798 238.711C209.621 238.145 209.46 237.573 209.276 237.009C209.198 236.773 209.107 236.534 208.976 236.324C208.537 235.617 208.062 235.624 207.621 236.311C207.488 236.519 207.395 236.758 207.317 236.994C207.123 237.587 206.951 238.188 206.762 238.783C206.648 239.14 206.533 239.498 206.393 239.844C206.139 240.474 205.662 240.849 204.994 240.958C204.625 241.018 204.249 241.067 203.876 241.07C202.438 241.082 201 241.075 199.562 241.073C199.154 241.073 198.752 241.027 198.353 240.935C197.762 240.798 197.347 240.45 197.103 239.901C197.002 239.674 196.917 239.438 196.841 239.2C196.738 238.872 196.645 238.541 196.555 238.209C195.657 234.893 194.761 231.575 193.861 228.258C193.15 225.635 192.435 223.012 191.72 220.39C191.391 219.184 191.057 217.98 190.729 216.774C190.656 216.503 190.592 216.229 190.531 215.955C190.462 215.648 190.448 215.336 190.474 215.023C190.512 214.57 190.757 214.267 191.174 214.114C191.378 214.04 191.596 213.997 191.812 213.968C192.027 213.939 192.248 213.936 192.467 213.936C193.561 213.933 194.655 213.931 195.749 213.937C196.03 213.938 196.312 213.954 196.591 213.989C197.342 214.082 197.86 214.486 198.117 215.2C198.222 215.494 198.308 215.795 198.38 216.099C198.511 216.645 198.628 217.196 198.746 217.745C199.555 221.502 200.363 225.258 201.168 229.015C201.28 229.537 201.436 230.043 201.629 230.539C201.708 230.744 201.817 230.931 201.982 231.085C202.145 231.237 202.41 231.258 202.583 231.124C202.786 230.967 202.939 230.77 203.019 230.528C203.147 230.143 203.286 229.759 203.378 229.364C203.648 228.209 203.899 227.048 204.153 225.888C204.3 225.217 204.445 224.545 204.581 223.872C204.68 223.382 204.775 222.891 204.853 222.397C204.961 221.712 204.946 221.026 204.781 220.35C204.648 219.803 204.502 219.26 204.358 218.717C204.143 217.901 203.925 217.086 203.708 216.272C203.602 215.876 203.554 215.475 203.578 215.065C203.608 214.572 203.875 214.257 204.32 214.081C204.435 214.036 204.56 214.01 204.682 213.988C204.805 213.966 204.93 213.95 205.055 213.95C206.43 213.946 207.806 213.944 209.181 213.947C209.495 213.947 209.803 214.004 210.105 214.092C210.585 214.231 210.922 214.537 211.137 214.981C211.301 215.32 211.395 215.684 211.474 216.051C211.709 217.151 211.944 218.251 212.181 219.35C212.814 222.282 213.45 225.212 214.082 228.144C214.188 228.634 214.326 229.114 214.503 229.582C214.604 229.852 214.767 230.076 215.015 230.232C215.138 230.309 215.341 230.303 215.458 230.222C215.645 230.093 215.769 229.915 215.86 229.714C216.069 229.257 216.205 228.776 216.32 228.289C216.45 227.742 216.573 227.193 216.691 226.643C217.163 224.444 217.628 222.243 218.101 220.045C218.391 218.701 218.686 217.358 218.991 216.018C219.066 215.684 219.167 215.352 219.298 215.037C219.516 214.514 219.913 214.184 220.474 214.058C220.811 213.982 221.151 213.939 221.496 213.938C222.684 213.936 223.872 213.935 225.06 213.94C225.278 213.941 225.497 213.962 225.714 213.992C225.867 214.014 226.022 214.053 226.166 214.11C226.578 214.271 226.83 214.564 226.868 215.018C226.903 215.428 226.856 215.829 226.75 216.225C226.489 217.19 226.236 218.157 225.974 219.122C225.681 220.208 225.379 221.291 225.084 222.376C224.552 224.336 224.023 226.296 223.49 228.256C222.836 230.668 222.178 233.079 221.524 235.491C221.229 236.577 220.943 237.664 220.646 238.749C220.564 239.05 220.461 239.346 220.359 239.64C220.074 240.463 219.49 240.915 218.627 241.005C218.286 241.04 217.942 241.069 217.599 241.074C216.786 241.084 215.974 241.077 215.161 241.077ZM233.03 241.079C232.719 241.079 232.409 241.002 232.098 240.963C231.943 240.963 231.788 240.924 231.672 240.847C231.283 240.73 231.012 240.459 230.895 240.071C230.779 239.799 230.701 239.489 230.701 239.179C230.662 238.869 230.662 238.558 230.662 238.248V216.683C230.662 216.256 230.662 215.791 230.74 215.364C230.856 214.55 231.361 214.084 232.176 213.968C232.409 213.968 232.681 213.929 232.914 213.929H236.096C236.29 213.929 236.484 213.929 236.679 213.968C236.834 214.007 237.028 214.046 237.222 214.084C237.688 214.24 237.998 214.589 238.153 215.054C238.231 215.403 238.27 215.752 238.27 216.101C238.27 216.412 238.309 216.761 238.309 217.11V227.504V237.938C238.309 238.287 238.27 238.597 238.27 238.946C238.27 239.295 238.231 239.644 238.115 239.993C237.998 240.381 237.726 240.692 237.338 240.847C237.183 240.886 237.028 240.963 236.873 240.963C236.562 241.002 236.252 241.079 235.941 241.079H233.03ZM251.46 241.075C251.053 241.072 250.648 241.02 250.254 240.912C249.763 240.777 249.44 240.45 249.29 239.974C249.215 239.74 249.186 239.485 249.172 239.238C249.15 238.833 249.153 238.426 249.153 238.02C249.151 233.145 249.152 228.271 249.151 223.395C249.151 222.927 249.151 222.458 249.132 221.989C249.121 221.741 249.096 221.488 249.032 221.249C248.874 220.664 248.504 220.269 247.91 220.097C247.546 219.992 247.174 219.956 246.798 219.953C246.204 219.948 245.61 219.949 245.015 219.946C244.671 219.943 244.327 219.943 243.984 219.928C243.766 219.917 243.544 219.9 243.334 219.85C242.733 219.705 242.332 219.34 242.221 218.719C242.011 217.539 242.011 216.355 242.216 215.174C242.317 214.592 242.673 214.223 243.234 214.07C243.503 213.996 243.787 213.965 244.066 213.948C244.44 213.925 244.816 213.93 245.192 213.93C247.787 213.929 250.382 213.93 252.978 213.93C255.573 213.93 258.169 213.929 260.764 213.93C261.139 213.93 261.516 213.925 261.889 213.953C262.168 213.974 262.451 214.018 262.716 214.101C263.161 214.24 263.458 214.553 263.604 214.997C263.713 215.326 263.761 215.668 263.765 216.013C263.771 216.668 263.779 217.325 263.76 217.981C263.752 218.259 263.708 218.543 263.63 218.81C263.469 219.364 263.091 219.724 262.526 219.845C262.223 219.91 261.906 219.929 261.595 219.936C260.939 219.951 260.282 219.943 259.625 219.947C259.344 219.948 259.062 219.943 258.782 219.964C258.534 219.983 258.281 220.011 258.042 220.076C257.381 220.258 256.956 220.687 256.835 221.368C256.764 221.766 256.734 222.173 256.709 222.578C256.688 222.921 256.701 223.265 256.701 223.609C256.701 228.39 256.701 233.171 256.7 237.952C256.7 238.389 256.699 238.827 256.68 239.264C256.671 239.481 256.646 239.703 256.584 239.91C256.431 240.423 256.099 240.776 255.574 240.927C255.241 241.022 254.9 241.072 254.555 241.074C253.523 241.079 252.491 241.082 251.46 241.075ZM269.765 241.079C269.377 241.079 269.028 241.002 268.64 240.924C268.135 240.769 267.747 240.459 267.669 239.916C267.553 239.489 267.514 239.101 267.475 238.713V237.86V217.148C267.475 216.45 267.514 215.752 267.631 215.093C267.708 214.744 267.902 214.472 268.213 214.278C268.329 214.162 268.485 214.084 268.64 214.084C268.911 214.007 269.183 213.929 269.455 213.929H273.103C273.375 213.929 273.686 214.007 273.957 214.084C274.462 214.201 274.811 214.55 274.966 215.093C275.044 215.364 275.083 215.675 275.083 215.985C275.122 216.295 275.122 216.605 275.122 216.916V222.074C275.122 222.501 275.122 222.889 275.16 223.315C275.199 223.665 275.355 223.975 275.587 224.246C275.859 224.557 276.17 224.751 276.635 224.789C276.868 224.828 277.101 224.828 277.373 224.828H281.215C281.487 224.828 281.759 224.828 282.069 224.789C282.807 224.673 283.311 224.208 283.467 223.471C283.505 223.238 283.544 223.044 283.544 222.811V221.686V216.644C283.544 216.295 283.583 215.946 283.583 215.597C283.622 214.627 284.282 214.007 285.174 213.968C285.369 213.968 285.563 213.929 285.757 213.929H288.823C289.133 213.929 289.444 213.968 289.754 214.007C290.531 214.162 290.958 214.666 291.074 215.442C291.113 215.752 291.113 216.101 291.113 216.45V220.872V227.427V237.938C291.113 238.364 291.113 238.791 291.074 239.218C291.074 239.489 291.035 239.722 290.958 239.955C290.802 240.459 290.492 240.769 289.987 240.924C289.599 241.002 289.211 241.079 288.784 241.079H285.873C285.563 241.079 285.213 241.002 284.864 240.963C284.126 240.808 283.7 240.381 283.622 239.644C283.583 239.373 283.583 239.14 283.583 238.869C283.544 238.403 283.544 237.899 283.544 237.395V233.555C283.544 233.09 283.544 232.624 283.389 232.159C283.273 231.693 283.001 231.383 282.613 231.15C282.419 231.073 282.186 231.034 281.992 230.995C281.759 230.956 281.526 230.956 281.332 230.956H277.295C277.024 230.956 276.713 230.956 276.441 230.995C275.782 231.111 275.393 231.499 275.238 232.159C275.16 232.353 275.16 232.585 275.122 232.779V233.826V238.248C275.122 238.558 275.083 238.869 275.083 239.179C275.083 239.489 275.005 239.799 274.889 240.071C274.772 240.498 274.462 240.769 274.074 240.886C273.647 241.002 273.259 241.079 272.87 241.079H269.765Z" fill="#111111"/>
<path d="M97.5697 308.475C96.8437 308.475 96.1177 308.475 95.3916 308.394C94.6656 308.394 93.9395 308.313 93.2942 308.072C92.2455 307.749 91.5194 307.024 91.2774 305.895C91.1161 305.411 91.1161 304.847 91.0354 304.363V302.187V258.172V256.237C91.0354 255.915 91.0354 255.593 91.1161 255.27C91.2774 253.497 92.3261 252.449 94.1009 252.207C94.5849 252.126 95.0689 252.046 95.6336 252.046H102.249C102.975 252.046 103.701 252.126 104.346 252.287C105.556 252.61 106.282 253.335 106.524 254.545C106.605 255.028 106.686 255.431 106.686 255.915V258.253V273.247V288.241C106.686 289.611 106.766 290.982 106.928 292.352C107.008 292.755 107.008 293.078 107.17 293.481C107.492 294.529 108.218 295.254 109.267 295.577C109.67 295.657 110.154 295.738 110.638 295.738C112.736 295.899 114.914 295.98 117.011 295.98H123.868C124.594 295.98 125.32 295.98 126.047 296.141C127.257 296.302 128.144 297.028 128.467 298.317C128.547 298.64 128.628 299.043 128.709 299.446C128.789 301.219 128.789 302.912 128.709 304.686C128.709 305.169 128.547 305.573 128.467 306.056C128.144 307.104 127.499 307.83 126.369 308.072C125.643 308.233 124.917 308.394 124.272 308.394C123.626 308.475 122.9 308.475 122.255 308.475H97.5697ZM158.373 309.523C156.518 309.361 154.743 309.119 152.968 308.797C149.661 308.233 146.676 307.024 143.933 305.25C140.706 303.235 138.286 300.494 136.512 297.108C134.898 294.125 134.011 290.982 133.446 287.676C133.043 285.258 132.962 282.759 132.962 280.26V277.761C133.043 274.537 133.688 271.393 134.575 268.329C135.463 265.427 136.834 262.767 138.69 260.349C140.303 258.172 142.239 256.399 144.498 254.867C148.37 252.449 152.565 251.078 157.163 250.917H160.874C164.746 251.078 168.538 251.884 172.087 253.416C175.879 255.028 179.025 257.608 181.364 260.994C183.381 263.976 184.672 267.362 185.398 270.909C186.285 275.02 186.527 279.293 186.205 283.485C185.801 288.241 184.753 292.755 182.413 296.947C179.186 302.912 174.265 306.862 167.65 308.555C165.634 309.119 163.536 309.442 161.519 309.523C160.471 309.603 159.422 309.603 158.373 309.523ZM157.244 297.672C159.664 298.317 161.923 298.076 164.02 296.624C164.746 296.141 165.392 295.496 165.956 294.77C166.602 293.884 167.166 292.916 167.65 291.868C168.618 289.611 169.183 287.193 169.425 284.694L169.667 281.792C169.748 280.986 169.748 280.099 169.748 279.293C169.587 276.955 169.425 274.617 168.941 272.279C168.618 270.587 168.054 268.894 167.166 267.362C166.682 266.314 166.037 265.427 165.23 264.702C163.859 263.493 162.326 262.686 160.551 262.445C158.051 262.122 155.872 262.848 154.098 264.621C152.726 265.911 151.839 267.443 151.194 269.216C150.629 270.748 150.145 272.441 149.903 274.053C149.661 276.068 149.419 278.084 149.5 280.018C149.419 281.953 149.58 283.726 149.822 285.581C149.984 287.273 150.387 288.886 150.871 290.498C151.274 291.788 151.839 292.916 152.565 294.045C153.775 295.738 155.227 297.028 157.244 297.672ZM217.495 308.475C215.806 308.475 214.118 308.48 212.43 308.476C211.518 308.473 210.615 308.389 209.723 308.187C208.508 307.911 207.614 307.209 207.031 306.123C206.785 305.667 206.586 305.185 206.398 304.702C206.21 304.218 206.054 303.722 205.899 303.227C204.93 300.13 203.968 297.031 203 293.934C202.283 291.642 201.562 289.352 200.843 287.061C200.163 284.893 199.485 282.725 198.801 280.559C196.906 274.556 195.004 268.555 193.11 262.552C192.544 260.758 191.997 258.956 191.43 257.162C191.154 256.288 190.982 255.404 191.03 254.482C191.087 253.403 191.663 252.662 192.703 252.35C193.394 252.142 194.104 252.078 194.82 252.072C196.313 252.06 197.808 252.055 199.301 252.055C200.34 252.055 201.38 252.063 202.418 252.08C203.069 252.092 203.712 252.171 204.342 252.351C205.542 252.695 206.418 253.414 206.87 254.583C207.127 255.248 207.346 255.93 207.527 256.62C208.416 260.009 209.291 263.403 210.164 266.797C211.667 272.642 213.157 278.491 214.669 284.334C214.962 285.464 215.315 286.579 215.675 287.689C215.814 288.117 216.013 288.537 216.255 288.916C216.422 289.178 216.688 289.397 216.95 289.576C217.361 289.857 218.051 289.768 218.388 289.401C218.605 289.166 218.82 288.906 218.949 288.618C219.4 287.61 219.779 286.575 220.052 285.502C220.469 283.867 220.89 282.233 221.312 280.6C221.962 278.086 222.617 275.575 223.265 273.061C224.624 267.781 225.976 262.5 227.34 257.223C227.519 256.533 227.724 255.847 227.962 255.175C228.112 254.749 228.312 254.334 228.547 253.948C229.077 253.079 229.843 252.5 230.849 252.284C231.291 252.189 231.746 252.103 232.196 252.1C235.053 252.082 237.911 252.079 240.767 252.094C241.217 252.096 241.673 252.179 242.114 252.277C242.427 252.346 242.736 252.473 243.018 252.626C243.626 252.955 243.988 253.47 244.062 254.171C244.131 254.824 244.092 255.469 243.925 256.102C243.793 256.604 243.636 257.099 243.479 257.594C242.282 261.368 241.074 265.138 239.887 268.915C238.545 273.186 237.227 277.466 235.887 281.739C234.509 286.135 233.117 290.528 231.728 294.92C230.788 297.891 229.851 300.861 228.892 303.826C228.654 304.564 228.369 305.293 228.051 306.001C227.51 307.207 226.575 307.943 225.271 308.216C224.44 308.389 223.602 308.467 222.756 308.47C221.003 308.475 219.249 308.471 217.495 308.471L217.495 308.475ZM257.957 308.475C256.747 308.475 255.618 308.475 254.488 308.152C253.843 307.991 253.359 307.749 252.956 307.346C252.552 306.862 252.23 306.379 252.149 305.814C252.068 305.331 251.988 304.928 251.988 304.444V302.106V280.26V258.092C251.988 257.285 251.988 256.399 252.068 255.593C252.068 255.028 252.149 254.545 252.31 254.061C252.633 253.255 253.117 252.691 253.924 252.449C254.569 252.207 255.214 252.126 255.86 252.126C256.586 252.046 257.312 252.046 257.957 252.046H285.305C285.95 252.046 286.676 252.046 287.402 252.126C287.967 252.126 288.451 252.207 288.935 252.368C290.064 252.61 290.71 253.416 290.952 254.464C291.032 254.867 291.113 255.27 291.113 255.673V260.913C291.113 261.235 291.032 261.558 291.032 261.88C290.79 263.251 289.822 264.218 288.451 264.379C287.967 264.46 287.483 264.541 287.079 264.541H284.74H274.011C273.285 264.541 272.559 264.541 271.833 264.621C271.187 264.621 270.542 264.702 269.977 264.944C269.009 265.266 268.444 265.911 268.041 266.798C268.041 266.959 267.96 267.12 267.88 267.362C267.638 268.732 267.638 270.183 267.799 271.635L268.041 272.36C268.444 273.569 269.251 274.295 270.542 274.537C271.187 274.698 271.833 274.698 272.478 274.698H277.157C278.125 274.698 279.093 274.778 280.061 274.94C280.384 275.02 280.706 275.02 281.029 275.181C281.836 275.423 282.481 275.988 282.723 276.874C282.965 277.519 283.127 278.245 283.127 278.97V283.243C283.127 283.888 282.965 284.533 282.804 285.177C282.481 286.145 281.836 286.709 280.868 286.951C280.626 287.112 280.303 287.112 279.98 287.193C278.69 287.273 277.399 287.435 276.028 287.435C274.817 287.354 273.607 287.354 272.397 287.435C271.752 287.435 271.187 287.435 270.623 287.515C269.332 287.676 268.525 288.483 268.041 289.692C267.557 290.901 267.557 292.191 268.041 293.481C268.525 294.77 269.332 295.577 270.784 295.657C272.639 295.818 274.495 295.899 276.35 295.98H285.708C286.595 295.98 287.402 295.98 288.289 296.06C288.773 296.141 289.258 296.221 289.742 296.544C290.468 297.108 290.952 297.753 291.032 298.64C291.113 298.962 291.113 299.285 291.113 299.607V304.686C291.113 305.089 291.032 305.573 290.952 306.056C290.71 307.104 290.064 307.749 289.096 308.072C288.37 308.313 287.725 308.394 286.999 308.394C286.434 308.475 285.789 308.475 285.224 308.475H257.957Z" fill="#111111"/>
<g clip-path="url(#clip1_138_57)">
<path d="M274.369 196.777C268.909 193.895 263.235 191.346 258.178 187.911C257.144 187.256 256.19 186.459 254.941 187.267C255.08 187.615 255.108 188.088 255.382 188.248C259.788 190.801 264.215 193.328 268.663 195.83C270.281 197.128 273.951 197.386 273.987 199.659C272.723 201.81 267.045 201.859 264.599 201.556C261.251 201.49 253.223 195.987 251.549 197.821C244.718 191.99 235.836 188.771 228.404 183.619L228.631 183.271C232.555 185.234 236.714 186.337 241.255 185.78C243.955 185.683 243.307 183.455 240.937 183.984C229.804 186.007 225.744 175.369 224.146 179.96C222.229 179.264 221.442 180.883 223.33 181.638C226.953 184.635 230.647 187.531 235.016 189.7C237.311 191.138 254.5 198.918 249.836 201.361C244.77 203.171 238.651 202.298 233.601 200.832C230.13 198.865 226.118 198.026 222.356 196.672C216.957 194.845 211.696 192.669 206.535 190.434C205.517 190.34 205.024 191.103 205.652 191.827C207.569 192.923 209.716 193.599 211.676 194.897C193.744 194.601 176.384 189.676 159.405 185.032C157.962 184.667 157.358 186.466 158.98 186.665C165.688 188.422 172.185 190.803 179.107 191.917C183.155 192.895 185.406 196.693 187.195 199.736C181.505 201.862 167.6 192.711 163.052 189.401C162.586 189.053 162.137 188.704 161.569 189.174C160.602 190.069 162.137 191.016 162.845 191.58C168.451 195.172 174.014 198.841 180.682 200.874C191.187 204.205 190.507 199.025 184.789 193.275C195.784 195.659 206.547 196.47 217.74 197.313C226.579 198.743 234.042 204.501 243.299 203.965C247.303 204.076 253.239 203.801 252.798 199.043C258.011 200.957 262.79 204.028 268.663 203.255C270.289 203.143 271.884 202.646 273.49 202.301C276.436 201.654 276.866 198.04 274.369 196.777ZM224.197 179.964C224.249 179.964 224.229 179.964 224.197 179.964Z" fill="#111111" stroke="black"/>
<path d="M215.231 152.969C214.189 153.728 215 154.629 215.012 155.454C215.12 157.748 215.108 167.895 218.333 167.986C219.462 168.156 222.122 169.977 221.836 167.683C220.162 162.754 218.344 158.222 217.362 153.063C217.684 152.259 220.241 151.155 219.402 150.059C218.643 149.147 217.692 150.087 216.909 150.529C216.133 149.849 215.561 149.012 215.244 148.092C214.927 147.172 214.875 146.197 215.092 145.255C218.456 145.989 221.603 147.343 224.321 149.227C224.718 149.606 225.267 149.794 225.621 149.37C227.056 147.166 222.798 146.529 221.323 145.541L221.466 145.193C230.861 147.473 228.651 144.256 237.211 144.054C237.772 144.284 238.802 143.929 238.933 143.567C238.91 143.37 238.838 143.18 238.723 143.01C238.608 142.84 238.451 142.694 238.265 142.582C236.73 142.157 235.275 142.516 233.597 142.617V140.051C237.072 140.163 240.027 141.388 242.742 143.121C243.379 143.545 244.162 143.762 244.961 143.738C250.703 144.312 259.748 145.356 260.866 151.424C259.784 152.036 258.627 153.794 257.287 152.649C256.668 152.187 256.228 151.57 256.025 150.881C255.823 150.191 255.87 149.464 256.158 148.799C256.377 148.263 256.381 147.789 255.796 147.473C255.212 147.156 254.667 147.372 254.42 147.918C253.351 150.498 250.73 147.622 249.617 149.262C249.037 150.498 252.337 150.745 253.418 150.922C254.07 153.067 251.955 155.503 249.283 155.702C248.353 155.914 246.229 155.141 246.102 156.37C246.152 156.571 246.257 156.758 246.408 156.915C246.559 157.072 246.752 157.194 246.969 157.272C250.496 158.159 253.331 156.227 255.287 153.808C257.558 154.911 259.108 154.943 261.335 153.623C264.468 164.414 255.669 169.319 252.567 178.745H248.989C248.301 178.418 246.814 176.511 245.84 177.611C244.667 179.208 248.722 179.452 247.287 181.534C246.917 182.16 245.895 182.954 246.889 183.546C248.695 184.165 248.937 181.722 249.852 180.681C256.587 179.17 253.876 189.78 248.098 186.104C247.498 185.223 245.848 185.206 246.082 186.428C250.54 192.279 259.446 184.966 254.365 179.974C255.605 174.457 259.82 170.165 262.436 165.138C264.89 160.38 263.629 154.769 262.472 149.822C260.79 145.168 254.5 143.285 249.49 142.582C246.897 142.109 244.114 141.945 241.868 140.587C239.339 139.045 236.301 138.704 233.446 138.004C230.663 137.698 231.689 141.444 231.478 143C226.309 145.534 220.392 142.585 214.865 143.522C211.49 144.072 213.064 149.276 214.718 150.832C215.442 151.559 214.869 152.308 215.231 152.969ZM219.243 166.51C218.003 165.601 217.971 164.383 217.963 163.154C218.387 164.275 218.814 165.394 219.243 166.51Z" fill="#111111" stroke="black"/>
<path d="M155.879 184.579C156.014 171.042 162.638 155.176 149.517 144.625C147.318 144.058 148.224 146.153 149.274 146.853C159.759 156.6 154.682 170.301 153.954 182.171C153.632 185.505 154.077 188.718 156.018 191.722C157.993 194.877 159.78 198.12 161.37 201.438C153.397 203.676 145.779 196.564 140.049 192.572C136.976 190.483 135.731 187.493 134.371 184.444C127.958 177.614 120.173 171.561 115.799 163.485C111.54 154.783 106.184 144.197 110.658 134.882C113.485 130.385 115.334 125.212 119.512 121.508C120.149 120.923 120.308 120.419 119.858 119.952C118.125 118.56 115.966 122.782 114.976 123.736C110.292 131.098 105.095 138.704 107.695 147.445C109.886 156.896 113.807 166.002 120.9 173.479C124.817 177.879 129.862 181.711 133.167 186.435C134.039 189.085 135.751 191.463 138.105 193.296C143.867 197.292 149.326 202.346 156.861 203.519C165.938 204.397 163.441 200.811 160.531 195.757C158.698 192.144 155.712 188.69 155.879 184.579Z" fill="#111111" stroke="black"/>
<path d="M154.936 36.796C161.374 36.2913 166.07 38.5365 168.348 44.0294C169.541 46.5566 168.809 49.2508 166.408 51.2872C163.103 54.0719 159.72 56.7975 156.372 59.5475C146.129 68.2498 134.137 77.6658 131.68 90.5487C130.686 93.1003 128.932 107 132.602 107.299C133.147 107.066 133.298 106.255 133.047 105.726C131.966 102.199 132.208 98.6593 132.741 95.0914C134.022 83.7122 140.515 76.1168 149.211 68.0758C154.765 62.9797 160.976 58.4962 166.65 53.5393C168.241 52.147 169.783 50.7546 170.316 48.7426C172.583 41.3665 163.954 33.8964 155.604 35.1356C154.467 35.0068 153.429 36.5036 154.936 36.796Z" fill="#111111" stroke="black"/>
<path d="M122.395 115.371C123.854 114.891 122.534 113.147 122.347 112.238C118.371 103.383 119.628 93.6816 120.526 84.4466C121.62 75.2987 122.956 65.7992 128.522 57.8209C131.986 52.69 135.043 47.2458 140.177 43.2009C141.68 42.4421 141.509 40.3535 139.481 41.356C133.055 46.7654 128.988 53.6055 124.769 60.3829C119.874 69.0261 119.27 78.9502 118.184 88.3975C117.047 97.1764 117.365 106.15 121.079 114.445C121.278 114.995 121.584 115.58 122.395 115.371Z" fill="#111111" stroke="black"/>
<path d="M138.26 108.138C136.67 108.406 137.008 110.324 138.658 109.791C159.775 103.125 179.418 118.633 192.189 131.819C193.251 132.658 199.971 140.117 199.489 135.996C185.465 122.462 169.982 106.519 147.306 106.37C144.03 106.018 141.278 107.303 138.26 108.138Z" fill="#111111" stroke="black"/>
<path d="M225.426 176.257C226.086 176.772 227.311 177.301 227.859 176.368C228.48 175.066 222.762 172.755 221.625 171.697C219.052 169.848 218.225 172.316 219.239 174.133C220.297 175.355 221.434 178.7 223.402 178.568C224.992 177.628 221.835 175.435 221.414 174.304L221.68 174.109L225.426 176.257Z" fill="#111111" stroke="black"/>
<path d="M230.452 177.04C228.841 179.393 238.714 181.986 240.79 181.534L240.818 181.687C241.943 181.273 245.681 181.722 245.124 180.089C244.909 179.758 244.142 179.393 243.768 179.494C239.315 180.636 235.533 179.299 231.955 177.162C231.438 176.855 230.981 176.58 230.452 177.04Z" fill="#111111" stroke="black"/>
<path d="M124.383 115.873C124.658 116.517 125.417 116.896 125.998 116.412C126.574 113.554 137.807 110.627 133.699 109.388C130.204 110.724 125.739 112.493 124.383 115.873Z" fill="#111111" stroke="black"/>
<path d="M210.782 144.42C214.189 143.121 205.195 140.11 204.106 139.129C202.913 138.363 202.014 139.574 202.913 140.389C205.553 141.746 207.883 143.501 210.782 144.42Z" fill="#111111" stroke="black"/>
<path d="M232.372 154.786C234.508 154.187 234.384 150.4 237.816 151.692C239.577 152.645 240.293 150.278 238.42 149.979C235.522 149.119 231.712 151.263 231.661 154.097C231.788 154.226 232.046 154.755 232.372 154.786Z" fill="#111111" stroke="black"/>
<path d="M144.137 40.5624C146.149 39.8035 147.998 38.2615 150.288 38.3381C150.996 38.3903 151.397 38.2162 151.505 37.614C151.703 36.3504 150.169 35.9954 149.119 36.4932C146.992 37.5374 144.089 38.0561 142.562 39.7478C142.63 40.7086 143.298 40.9453 144.137 40.5624Z" fill="#111111" stroke="black"/>
</g>
</g>
<defs>
<clipPath id="clip0_138_57">
<rect width="383" height="378" fill="white"/>
</clipPath>
<clipPath id="clip1_138_57">
<rect width="169" height="169" fill="white" transform="translate(107 35)"/>
</clipPath>
</defs>
</svg>
